# xmcd
#
# Track frame offsets:
#	172
#	21005
#	40920
#	63675
#
# Disc length: 1066 seconds
#
# Revision: 1
# Processed by: cddbd v1.5.2PL0 Copyright (c) Steve Scherf et al.
# Submitted via: audiograbber 1.83.01
#
DISCID=2f042804
DTITLE=Joan Armatrading - more than a kind of love
DYEAR=1990
DGENRE=Pop
TTITLE0=more than a kind of love
TTITLE1=goot times
TTITLE2=love and affection (live)
TTITLE3=i'm lucky (live)
EXTD=
EXTT0=
EXTT1=
EXTT2=
EXTT3=
PLAYORDER=
